<?xml version="1.0" encoding="utf-8"?>
<!-- Generator: Adobe Illustrator 25.4.1, SVG Export Plug-In . SVG Version: 6.00 Build 0)  -->
<svg version="1.1" id="레이어_1" xmlns="http://www.w3.org/2000/svg" xmlns:xlink="http://www.w3.org/1999/xlink" x="0px"
	 y="0px" viewBox="0 0 361.1 78.6" style="enable-background:new 0 0 361.1 78.6;" xml:space="preserve">
<style type="text/css">
	.st0{fill:#595757;}
	.st1{fill:#FF8E7B;}
</style>
<g>
	<g>
		<path class="st0" d="M69.2,0C65,0.1,60.8,0.6,57.1,1.3C49.8,2.7,42.5,5,36,8.8c-4.4,2.6-9.6,6.5-10.8,11.8C25,21.3,25,22,25,22.7
			c0,3.7,3,6.9,6.4,6.9c-1.5-0.8-2.5-2.5-2.5-4.6c0-7.6,23.4-22.7,45.9-22.4C81.1,2.7,88.1,4.4,93,8.5c11.1,9.2,0.9,24.3-6.6,32.1
			c-9.3,9.7-21.1,17-33.3,22.6c-12.8,5.9-27.1,10.5-41.4,10.5c-3.1,0-8.3-0.5-8.3-3.8c0-8,16.2-19.3,28.6-25
			c0.3-0.2,0.5-0.3,0.5-0.4C16.2,50.1,0,62.1,0,70.6c0,6.9,8.9,8,13.5,8c14.7,0,29.4-3.8,42.8-9.6C70.6,62.8,85.2,54,94.8,41.4
			c6.7-8.9,11.5-21.8,3.3-31.4C91.3,2,80-0.2,69.2,0z"/>
		<path class="st0" d="M76,15.5c0.7-0.6,1.6-1.3,2.4-1.6c0.4-0.2,2.5-0.6,2.8,0.1c-0.4-1.3-1.5-2.2-2.7-3c-0.9-0.6-2-1.2-3.1-1.2
			c-1.4-0.1-2.8,0.6-4,1.4c-2.4,1.8-4.5,3.9-6.4,6.1c-5,5.5-9.6,11.6-13.8,17.8c-2.3,3.4-4.7,6.8-6.7,10.4c-1.7,3-4.6,7.3-4.6,10.9
			c0,1.5,1.1,2.3,2.1,2.3c1.5,0,5-2.3,5.3-3.4c-1.8,0.9-3.1,1.1-4.4,1.1c0-1.6,1.6-3.6,2.4-4.8c1.9-2.9,4-5.7,6.2-8.5
			c4.1-5.3,8.2-10.5,12.7-15.5c2.2-2.5,4.6-5,7-7.4C72.8,18.6,74.2,16.9,76,15.5C76,15.5,76,15.5,76,15.5z"/>
		<path class="st0" d="M113,31.8c0.9-1.3,4.4-4.4,5.7-5c0.8-0.4,1.5-0.1,1.6-0.1c0.3,0-0.2-1.1-0.8-1.9c-1.3-1.4-3.2-3.1-5.2-2.1
			c-1.8,0.9-2.9,3.1-3.6,4.8c-0.4,1-0.7,2.2-0.4,3.2C110.7,31.7,112.1,33,113,31.8z"/>
		<path class="st0" d="M194.6,21.6c-4.5-1-8.9-2-13.5-2.4c-4.7-0.4-9.4-0.2-14.1-0.1c2-2.9,4.2-5.5,6.8-7.9c1-0.9,2.4-1.9,3.6-1.3
			c-0.7-2.7-4.9-2.4-6.9-3c-2.7-0.8-4.6,3.2-6.2,5.6c-1.6,2.3-3.4,5.2-5.5,6.3c-5,2.6-11.6,1.6-15.7,5.4c-0.4,0.4-0.8,0.8-1,1.4
			c-0.8,2.1,1.6,4,3.8,4.7c-0.8-0.8,0.1-2,1-2.6c2.6-1.9,5.7-3.1,8.9-3.6c-6,6.5-8.9,15.6-15.2,21.8c-2.1,2-4.4,3.7-6.8,5.4
			c-4.7,3.3-9.5,6.7-15,8.4c-1.2,0.4-2.7,0.5-3.4-0.5c-0.3-0.4-0.3-0.8-0.3-1.3c0-2,1.4-3.8,3.1-4.8c3.4-2.1,7.7-2.9,11.3-4.8
			c3.7-2,7-4.4,9.7-7.6c1.3-1.6,2.5-3.8,1.7-5.6c-2.6-5.6-11.9-0.7-15.2,1.4c-6,3.8-10.7,9.2-15.9,14c-1.9,1.7-3.8,3.4-5.8,4.9
			c-1,0.7-2.1,1.4-3.1,2.1c-0.6,0.3-3.1,1.2-3.4,1.7c3-6.7,7-12.9,11.8-18.5c0.9-1,2.7-1.7,4-1.2c-0.1-1.3-1.1-3.1-2.1-4
			c-1-0.9-2.5-1.3-3.7-0.9c-1.3,0.4-2.3,1.5-3.1,2.6C99.4,43,94.8,49.1,92,56c-0.5,1.2-0.9,2.4-0.9,3.6c0,1.3,0.6,2.6,1.7,3.2
			c1.5,0.8,3.3,0.1,4.7-0.6c4.9-2.6,8.9-6.6,12.8-10.5c-0.7,1.5-1.4,3-1.6,4.6c-0.3,1.6-0.1,3.3,0.8,4.7c2.3,3.2,7.1,2.3,10.2,1.1
			c7.9-3.2,14.4-8.9,20.7-14.5c-1.3,2.9-3.5,5.4-4.2,8.4c-0.8,3,0.7,7.1,3.9,7.3c1.8,0.1,3.4-1.1,4.8-2.2
			c6.7-5.5,12.7-11.7,18.1-18.5c-4.3,3.8-8.7,7.6-13,11.5c-2.4,2.1-5,4.3-8.2,4.8c5.8-12.1,12.9-23.6,21.1-34.2
			c0.6-0.8,1.3-1.7,2.3-2.2c0.9-0.5,1.9-0.6,2.9-0.6c9.1-0.8,18.2-0.8,27.3-0.1C194.9,21.7,194.7,21.7,194.6,21.6z M137.7,35.1
			c-0.5,2.9-7.3,10.3-18.8,14.5C121.4,45.5,129.2,37.9,137.7,35.1z"/>
	</g>
	<g>
		<g>
			<path class="st1" d="M200.9,7.6v28.3h73.4V7.6H200.9z M228.2,13.1l-5,17.7c-0.1,0.2-0.3,0.4-0.5,0.4h-0.4c-0.2,0-0.4-0.1-0.4-0.3
				l-4.7-12H217l-4.7,12c-0.1,0.2-0.2,0.3-0.4,0.3h-0.4c-0.2,0-0.4-0.2-0.5-0.4l-5-17.7c-0.1-0.4,0.1-0.6,0.5-0.6h2.4
				c0.2,0,0.4,0.2,0.5,0.4l2.7,10.5h0.1l4.2-10.9c0.1-0.2,0.2-0.3,0.4-0.3h0.5c0.3,0,0.4,0.1,0.5,0.3l4.2,10.9h0.1l2.7-10.5
				c0.1-0.2,0.3-0.4,0.5-0.4h2.4C228.1,12.5,228.3,12.8,228.2,13.1z M234.8,30.5c0,0.3-0.2,0.5-0.5,0.5h-2.5c-0.3,0-0.5-0.2-0.5-0.5
				V13c0-0.3,0.2-0.5,0.5-0.5h2.5c0.3,0,0.5,0.2,0.5,0.5V30.5z M250.1,15.2c0,0.3-0.2,0.5-0.5,0.5h-4v14.8c0,0.3-0.2,0.5-0.5,0.5
				h-2.5c-0.3,0-0.5-0.2-0.5-0.5V15.7h-4c-0.3,0-0.5-0.2-0.5-0.5V13c0-0.3,0.2-0.5,0.5-0.5h11.5c0.3,0,0.5,0.2,0.5,0.5V15.2z
				 M268.3,30.5c0,0.3-0.2,0.5-0.5,0.5h-2.4c-0.3,0-0.5-0.2-0.5-0.5v-7.3h-8.6v7.3c0,0.3-0.2,0.5-0.5,0.5h-2.5
				c-0.3,0-0.5-0.2-0.5-0.5V13c0-0.3,0.2-0.5,0.5-0.5h2.5c0.3,0,0.5,0.2,0.5,0.5v7h8.6v-7c0-0.3,0.2-0.5,0.5-0.5h2.4
				c0.3,0,0.5,0.2,0.5,0.5V30.5z"/>
		</g>
		<g>
			<path class="st0" d="M210.9,43.8c2.6,0,4.6,0.9,6.3,2.4c0.2,0.2,0.2,0.5,0,0.7l-0.7,0.7c-0.2,0.3-0.4,0.2-0.7,0
				c-1.4-1.2-3.2-2-5-2c-4.1,0-7.3,3.5-7.3,7.5c0,4,3.2,7.5,7.3,7.5c2.3,0,3.6-0.9,5-2c0.3-0.2,0.5-0.2,0.6-0.1l0.8,0.7
				c0.2,0.2,0.2,0.5,0,0.7c-1.8,1.7-4,2.5-6.4,2.5c-5.2,0-9.5-4.2-9.5-9.4C201.5,48.1,205.7,43.8,210.9,43.8z"/>
			<path class="st0" d="M222.6,44.6c0-0.3,0.2-0.5,0.5-0.5h1c0.3,0,0.5,0.2,0.5,0.5v7.6h10.6v-7.6c0-0.3,0.2-0.5,0.5-0.5h1
				c0.3,0,0.5,0.2,0.5,0.5v17.3c0,0.3-0.2,0.5-0.5,0.5h-1c-0.3,0-0.5-0.2-0.5-0.5V54h-10.6v7.9c0,0.3-0.2,0.5-0.5,0.5h-1
				c-0.3,0-0.5-0.2-0.5-0.5V44.6z"/>
			<path class="st0" d="M241.4,61.8l8-17.6c0.1-0.2,0.2-0.3,0.4-0.3h0.3c0.2,0,0.4,0.1,0.4,0.3l7.9,17.6c0.2,0.3-0.1,0.7-0.4,0.7h-1
				c-0.2,0-0.4-0.2-0.4-0.3l-1.9-4.3h-9.3l-1.9,4.3c-0.1,0.1-0.2,0.3-0.4,0.3h-1C241.5,62.4,241.3,62.1,241.4,61.8z M253.9,56.2
				c-1.3-2.9-2.5-5.7-3.8-8.6h-0.2l-3.8,8.6H253.9z"/>
			<path class="st0" d="M262.6,44.6c0-0.3,0.2-0.5,0.5-0.5h1c0.3,0,0.5,0.2,0.5,0.5v16.1h7.5c0.3,0,0.5,0.2,0.5,0.5v0.8
				c0,0.3-0.2,0.5-0.5,0.5h-9.1c-0.3,0-0.5-0.2-0.5-0.5V44.6z"/>
			<path class="st0" d="M276.8,44.6c0-0.3,0.2-0.5,0.5-0.5h1c0.3,0,0.5,0.2,0.5,0.5v16.1h7.5c0.3,0,0.5,0.2,0.5,0.5v0.8
				c0,0.3-0.2,0.5-0.5,0.5h-9.1c-0.3,0-0.5-0.2-0.5-0.5V44.6z"/>
			<path class="st0" d="M290.9,44.6c0-0.3,0.2-0.5,0.5-0.5h10.3c0.3,0,0.5,0.2,0.5,0.5v0.8c0,0.3-0.2,0.5-0.5,0.5h-8.8v6.4h7.5
				c0.3,0,0.5,0.2,0.5,0.5v0.8c0,0.3-0.2,0.5-0.5,0.5h-7.5v6.7h8.8c0.3,0,0.5,0.2,0.5,0.5v0.8c0,0.3-0.2,0.5-0.5,0.5h-10.3
				c-0.3,0-0.5-0.2-0.5-0.5V44.6z"/>
			<path class="st0" d="M307.7,44.3c0-0.3,0.2-0.5,0.5-0.5h0.7l11.8,14.7c0,0,0,0,0.1,0v-14c0-0.3,0.2-0.5,0.5-0.5h0.9
				c0.3,0,0.5,0.2,0.5,0.5v17.6c0,0.3-0.2,0.5-0.5,0.5h-0.5l-12-15h0v14.2c0,0.3-0.2,0.5-0.5,0.5h-0.9c-0.3,0-0.5-0.2-0.5-0.5V44.3z
				"/>
			<path class="st0" d="M337.4,43.8c2.6,0,4.6,0.9,6.3,2.4c0.2,0.2,0.2,0.5,0,0.7c-0.2,0.2-0.5,0.5-0.7,0.7c-0.2,0.3-0.4,0.2-0.7,0
				c-1.3-1.2-3.2-2-5-2c-4.1,0-7.3,3.5-7.3,7.5c0,4,3.1,7.6,7.3,7.6c2.9,0,4.7-1.1,4.7-1.1V56h-3c-0.3,0-0.5-0.2-0.5-0.5v-1
				c0-0.3,0.2-0.5,0.5-0.5h4.5c0.3,0,0.5,0.2,0.5,0.5v6c0,0.1-0.1,0.3-0.2,0.4c0,0-2.7,1.7-6.5,1.7c-5.2,0-9.5-4.2-9.5-9.4
				C328,48.1,332.2,43.8,337.4,43.8z"/>
			<path class="st0" d="M349.8,44.6c0-0.3,0.2-0.5,0.5-0.5h10.3c0.3,0,0.5,0.2,0.5,0.5v0.8c0,0.3-0.2,0.5-0.5,0.5h-8.8v6.4h7.5
				c0.3,0,0.5,0.2,0.5,0.5v0.8c0,0.3-0.2,0.5-0.5,0.5h-7.5v6.7h8.8c0.3,0,0.5,0.2,0.5,0.5v0.8c0,0.3-0.2,0.5-0.5,0.5h-10.3
				c-0.3,0-0.5-0.2-0.5-0.5V44.6z"/>
		</g>
	</g>
</g>
</svg>
