<svg id="Dal.K" xmlns="http://www.w3.org/2000/svg" width="89.231" height="31.344" viewBox="0 0 89.231 31.344">
    <defs>
        <clipPath id="clip-path">
            <path id="사각형_3259" data-name="사각형 3259" style="fill:none" d="M0 0h89.231v31.344H0z"/>
        </clipPath>
        <style>
            .cls-3,.cls-4{fill:#2a31a0}.cls-4{fill-rule:evenodd}
        </style>
    </defs>
    <g id="그룹_1765" data-name="그룹 1765" style="clip-path:url(#clip-path)">
        <path id="패스_1044" data-name="패스 1044" class="cls-3" d="M23.8 13.148a18.238 18.238 0 0 0-2.376-8.23A10.44 10.44 0 0 0 15.557.259 11.989 11.989 0 0 0 11.27.123a25.6 25.6 0 0 0-5.16.93A27.6 27.6 0 0 0 1.674 3.2C-.4 4.2-.051 5.562.171 6.922c1 2.075 2 1.932 2.648 1.717a24.72 24.72 0 0 0 2.5-1.288s-.644 14.32-.93 18.47.93 4.73 1.789 5.16a4.553 4.553 0 0 0 3.156-.215.91.91 0 0 1 .859-.358 9.483 9.483 0 0 0 3.936.572A9.711 9.711 0 0 0 20 28.9c2.218-1.574 3.363-4.151 3.8-7.872a32.372 32.372 0 0 0 0-7.879m-7.377 9.881a5 5 0 0 1-5.94 1.5c-.5-6.011.644-18.4.644-18.4a3.989 3.989 0 0 1 2.863-.33c2.841.78 3.285 2.862 3.714 5.875s1.081 8.638-1.281 11.357" transform="translate(.001 -.004)"/>
        <path id="패스_1045" data-name="패스 1045" class="cls-3" d="M37.083 21.326c-.358-1.431-1.073-2.934-1.8-3.292s-1.209.358-1.281 1.145a14.131 14.131 0 0 1-2.226 4.516c-.58.63-1.03 1.245-1.961.916A3.5 3.5 0 0 1 28.2 22.9c-.093-.794.895-1.374 1.324-1.918a21.433 21.433 0 0 0 1.682-2.469 22.824 22.824 0 0 0 3.077-8.566c0-2.154.072-4.873-1.718-7.521a3.773 3.773 0 0 0-4.434-2.29c-2.931.43-4.008 3.936-5.01 7.228a29.3 29.3 0 0 0-1 10.813c-1.574 2.791-3.507 5.582-3.507 5.582s-.937 1.081-1.224-.716a15.241 15.241 0 0 1 .572-5.224c.215-.859 1.145-4.151-.143-5.51 0 0-.5-.572-1.646-.143-.5.286-.716.429-1.217.215s-1.574-1.646-5.8.716-6.874 10.161-5.364 13.388 2.5 3.864 5.081 4.222c1.367-.143 2.863-.787 4.294-3.077.429-.286.787-.072 1 .429a3.612 3.612 0 0 0 3.721 2.362c2.655-.143 2.941-.573 5.374-5.009.716 1.789 2 4.58 5.868 5.3 2.147.072 3.507.286 6.734-4.723.286-.572 1.574-3.227 1.217-4.659M10.948 22.9c-1.861 3.585-2.433 3.013-3.006 2.655-1.073-1.438-.072-4.3.716-5.947 2.147-3.149 3.507-2.791 3.507-2.791 1.431.572.644 2.5-1.217 6.083m15.536-6.8a27.518 27.518 0 0 1 .072-5.3 13.152 13.152 0 0 1 .644-3.365c.644-2.147 1.789-1.36 1.932-.716a7.614 7.614 0 0 1 .215 3.943 17.679 17.679 0 0 1-1.789 5.653c-.358.5-.787 1.789-1.073-.215" transform="translate(20.718 .406)"/>
        <path id="패스_1046" data-name="패스 1046" class="cls-4" d="M11.093 3.548a3.351 3.351 0 0 1 .8-.014 2.849 2.849 0 0 1 2.592 3.706 2.064 2.064 0 0 1-.98 1.546 4.1 4.1 0 0 1-3.163.8 3.009 3.009 0 0 1-2.033-1.315 4.345 4.345 0 0 1-.143-2.641 3.613 3.613 0 0 1 2.927-2.082" transform="translate(49.392 21.641)"/>
        <path id="패스_1047" data-name="패스 1047" class="cls-4" d="M13.235.432c-.544.157-1.052.329-1.424.422-1.818.458-1.5 3.17-1.474 4.559.029 2.147-.193 4.308-.308 6.455a112.962 112.962 0 0 0-.437 11.321c.143 2.941.043 5.059 1.453 6.541s2.562 1.124 3.063.909a3.034 3.034 0 0 0 2.218-2.719c0-1.861-.143-6.519-.143-6.519s-.286-1.861.286-1.574a62.18 62.18 0 0 1 5.188 5.868c.322.508 2.326 3.728 2.755 4.158a2.987 2.987 0 0 0 2.8.93c1.281-.358 2.175-.623 2.447-1.5a3.532 3.532 0 0 0-.372-3.371c-.93-1.51-5.99-7.12-6.934-8.144a30.173 30.173 0 0 1-2.247-3.006s1.753-2.662 2.462-3.6a75.016 75.016 0 0 1 5.575-6.09c1.5-1.36 2.576-1.717 2.226-3.006S27.426-.649 25.351.5a16.8 16.8 0 0 0-4.609 4.659c-.472.708-4.129 5.51-4.129 5.51s-.358 0-.358-.787.25-5.954.272-6.562a3.625 3.625 0 0 0-.121-2.466c-.551-1.016-1.961-.773-3.17-.422" transform="translate(58.799 .475)"/>
    </g>
</svg>
