<svg id="logo_dalkomm" xmlns="http://www.w3.org/2000/svg" width="117" height="30" viewBox="0 0 117 30">
    <defs>
        <style>
            .cls-2{fill:#161615}
        </style>
    </defs>
    <path style="fill:none" d="M0 0h117v30H0z"/>
    <g transform="translate(-213.883 -169.136)">
        <g transform="translate(213.884 169.136)">
            <path class="cls-2" d="M294.343 182.363c-.176-.573-.419-.728-.793-.618a2.038 2.038 0 0 1-.419.088c-.243 0-.265-.176-.265-.419v-11.241c0-.661-.374-1.147-1.036-1.014l-1.786.331c-.661.132-1.014.375-1.014 1.014v11.242c0 2.271 1.169 3.439 3.373 3.439a4.034 4.034 0 0 0 1.962-.463c.375-.22.551-.4.353-1.014z" transform="translate(-255.833 -169.136)"/>
            <circle class="cls-2" cx="2.293" cy="2.293" r="2.293" transform="translate(39.788 11.441)"/>
            <path class="cls-2" d="M355.46 179.216a5.808 5.808 0 1 0 6.151 5.8 5.8 5.8 0 0 0-6.151-5.8zm0 8.333a2.54 2.54 0 1 1 2.381-2.535 2.4 2.4 0 0 1-2.381 2.535z" transform="translate(-289.483 -174.763)"/>
            <path class="cls-2" d="M400.561 187.7c-.176-.573-.418-.728-.793-.618a2.013 2.013 0 0 1-.419.088c-.243 0-.265-.176-.265-.419v-2.719h-.023v-.014a4.457 4.457 0 0 0-4.629-4.806 4.917 4.917 0 0 0-3.615 1.477 4.285 4.285 0 0 0-3.417-1.477 4.152 4.152 0 0 0-3.527 1.83 2.707 2.707 0 0 0-2.8-1.83 3.932 3.932 0 0 0-1.654.375c-.485.243-.573.529-.441 1.1l.308 1.455c.133.551.4.64.6.618.22-.023.507-.2.706-.2.154 0 .243.11.243.308v6.635a.911.911 0 0 0 .992 1.014h1.83a.912.912 0 0 0 .992-1.014v-5.2a1.681 1.681 0 0 1 1.719-1.852 1.638 1.638 0 0 1 1.676 1.852v5.2a.911.911 0 0 0 .992 1.014h1.83a.912.912 0 0 0 .992-1.014v-5.2a1.693 1.693 0 0 1 1.719-1.852 1.638 1.638 0 0 1 1.675 1.852v2.776c0 2.271 1.169 3.44 3.372 3.44a4.04 4.04 0 0 0 1.962-.463c.375-.221.551-.4.353-1.014z" transform="translate(-306.014 -174.763)"/>
            <path class="cls-2" d="m449.49 189.048-.375-1.344c-.176-.573-.419-.728-.793-.618a2 2 0 0 1-.419.088c-.243 0-.265-.176-.265-.419v-2.719h-.025v-.014a4.457 4.457 0 0 0-4.629-4.806 4.917 4.917 0 0 0-3.615 1.477 4.284 4.284 0 0 0-3.417-1.477 4.153 4.153 0 0 0-3.528 1.83 2.707 2.707 0 0 0-2.8-1.83 3.933 3.933 0 0 0-1.654.375c-.485.243-.573.529-.441 1.1l.309 1.455c.132.551.4.64.6.618.22-.023.507-.2.705-.2.155 0 .243.11.243.308v6.635a.912.912 0 0 0 .992 1.014h1.822a.912.912 0 0 0 .992-1.014v-5.2a1.681 1.681 0 0 1 1.719-1.852 1.638 1.638 0 0 1 1.676 1.852v5.2a.911.911 0 0 0 .992 1.014h1.829a.912.912 0 0 0 .992-1.014v-5.2a1.693 1.693 0 0 1 1.719-1.852 1.638 1.638 0 0 1 1.675 1.852v2.776c0 2.271 1.169 3.44 3.373 3.44a4.039 4.039 0 0 0 1.962-.463c.383-.219.56-.395.361-1.012z" transform="translate(-333.117 -174.763)"/>
            <path class="cls-2" d="M266.8 187.7c-.176-.573-.418-.728-.793-.618a2.014 2.014 0 0 1-.419.088c-.243 0-.265-.176-.265-.419V180.3a.928.928 0 0 0-1.014-1.014h-1.08a.911.911 0 0 0-.992 1.014v.243a5.32 5.32 0 0 0-3.528-1.323 5.805 5.805 0 0 0 0 11.6 4.747 4.747 0 0 0 3.438-1.414 3.193 3.193 0 0 0 2.712 1.127 4.042 4.042 0 0 0 1.962-.463c.375-.221.551-.4.353-1.014zm-7.473-.154a2.542 2.542 0 0 1 0-5.071 2.343 2.343 0 0 1 2.359 2.535 2.38 2.38 0 0 1-2.363 2.539z" transform="translate(-235.828 -174.763)"/>
            <path class="cls-2" d="M222.278 172.38h-6.244a3.932 3.932 0 0 0-1.654.375c-.485.243-.573.529-.441 1.1l.308 1.454c.133.551.4.64.6.618.22-.023.507-.2.706-.2.154 0 .243.11.243.308v.934h.006v8.7a.941.941 0 0 0 1.036 1.036h5.444c4.652 0 7.54-2.865 7.54-7.187-.004-4.272-2.892-7.138-7.544-7.138zm-.154 11.176h-2.447v-8.024h2.447c2.2 0 3.769 1.478 3.769 4.012s-1.564 4.012-3.768 4.012z" transform="translate(-213.884 -170.947)"/>
            <path class="cls-2" d="M329.4 184.085c-.154-.573-.375-.749-.86-.617a1.4 1.4 0 0 1-.573.044c-.22-.044-.485-.265-1.168-1.213l-2.381-3.35 4.7-5.533c.507-.6.154-1.036-.529-1.036H326.1c-.683 0-1.014.4-1.5 1.014l-3.814 4.519v-4.5a.941.941 0 0 0-1.036-1.036h-2.605a3.933 3.933 0 0 0-1.654.375c-.485.243-.573.529-.441 1.1l.309 1.454c.132.551.4.64.6.618.22-.023.507-.2.705-.2.155 0 .243.11.243.308v9.634a.941.941 0 0 0 1.036 1.036h1.807a.94.94 0 0 0 1.036-1.036v-3.505l.838-.948 1.631 2.271a19.56 19.56 0 0 0 2.05 2.645 3.523 3.523 0 0 0 2.424.838 3.143 3.143 0 0 0 1.61-.353.806.806 0 0 0 .441-1.1z" transform="translate(-270.327 -170.947)"/>
        </g>
        <g transform="translate(232.886 190.917)">
            <path class="cls-2" d="M256.9 223.759v-3.331c0-1.256.628-1.989 1.694-1.989a1.547 1.547 0 0 1 1.627 1.551c0 .086-.01.171-.124.171h-.533c-.1 0-.152-.029-.162-.133a.84.84 0 0 0-.8-.78c-.495 0-.838.419-.838 1.18v3.331c0 .762.343 1.18.838 1.18a.84.84 0 0 0 .8-.78c.009-.1.057-.133.162-.133h.533c.114 0 .124.086.124.171a1.547 1.547 0 0 1-1.627 1.551c-1.07.001-1.694-.732-1.694-1.989z" transform="translate(-256.896 -218.44)"/>
            <path class="cls-2" d="M267.838 223.759v-3.331c0-1.256.628-1.989 1.694-1.989s1.694.732 1.694 1.989v3.331c0 1.256-.628 1.989-1.694 1.989s-1.694-.732-1.694-1.989zm2.522 0v-3.331c0-.761-.342-1.18-.828-1.18s-.828.419-.828 1.18v3.331c0 .771.343 1.18.828 1.18s.828-.409.828-1.18z" transform="translate(-263.004 -218.44)"/>
            <path class="cls-2" d="M281.686 218.834v.362c0 .143-.057.2-.2.2h-1.4c-.143 0-.181.038-.181.181v1.95c0 .143.038.181.181.181h.923c.142 0 .2.057.2.2v.361c0 .143-.057.2-.2.2h-.923c-.143 0-.181.038-.181.181v2.921c0 .143-.057.2-.2.2h-.466c-.143 0-.2-.057-.2-.2v-6.737c0-.143.057-.2.2-.2h2.246c.144 0 .201.057.201.2z" transform="translate(-269.258 -218.548)"/>
            <path class="cls-2" d="M290.733 218.834v.362c0 .143-.057.2-.2.2h-1.4c-.143 0-.181.038-.181.181v1.95c0 .143.038.181.181.181h.923c.143 0 .2.057.2.2v.361c0 .143-.057.2-.2.2h-.923c-.143 0-.181.038-.181.181v2.921c0 .143-.057.2-.2.2h-.466c-.143 0-.2-.057-.2-.2v-6.737c0-.143.057-.2.2-.2h2.246c.144 0 .201.057.201.2z" transform="translate(-274.308 -218.548)"/>
            <path class="cls-2" d="M298 221.527c0 .143.038.181.181.181h1.39c.143 0 .2.057.2.2v.361c0 .143-.057.2-.2.2h-1.39c-.143 0-.181.038-.181.181v2.179c0 .143.038.181.181.181h1.39c.143 0 .2.057.2.2v.361c0 .143-.057.2-.2.2h-2.237c-.143 0-.2-.057-.2-.2v-6.737c0-.143.057-.2.2-.2h2.237c.143 0 .2.057.2.2v.362c0 .143-.057.2-.2.2h-1.39c-.143 0-.181.038-.181.181z" transform="translate(-279.359 -218.548)"/>
            <path class="cls-2" d="M307.5 221.527c0 .143.038.181.181.181h1.39c.143 0 .2.057.2.2v.361c0 .143-.057.2-.2.2h-1.39c-.143 0-.181.038-.181.181v2.179c0 .143.038.181.181.181h1.39c.143 0 .2.057.2.2v.361c0 .143-.057.2-.2.2h-2.237c-.143 0-.2-.057-.2-.2v-6.737c0-.143.057-.2.2-.2h2.237c.143 0 .2.057.2.2v.362c0 .143-.057.2-.2.2h-1.39c-.143 0-.181.038-.181.181z" transform="translate(-284.662 -218.548)"/>
            <path class="cls-2" d="M325.78 222.142v.3c0 .143-.057.2-.2.2h-.362c-.143 0-.181.038-.181.181v1.294a1.435 1.435 0 0 1-1.475 1.628c-.761 0-1.5-.457-1.5-1.713v-.885a1.531 1.531 0 0 1 .514-1.247 1.533 1.533 0 0 1-.514-1.247v-.5c0-1.256.742-1.713 1.494-1.713a1.288 1.288 0 0 1 1.37 1.142c.009.086-.01.171-.124.171h-.457a.146.146 0 0 1-.162-.114.619.619 0 0 0-.59-.428c-.333 0-.695.219-.695.818v.647c0 .6.362.828.695.828.143 0 .2.057.2.2v.391c0 .143-.057.2-.2.2-.333 0-.695.228-.695.828v1.037c0 .6.371.818.7.818a.715.715 0 0 0 .714-.818v-2.018c0-.143.057-.2.2-.2h1.066c.145 0 .202.058.202.2z" transform="translate(-293.272 -218.44)"/>
            <path class="cls-2" d="M339.464 223.759v-3.331c0-1.256.628-1.989 1.694-1.989a1.546 1.546 0 0 1 1.627 1.551c0 .086-.009.171-.124.171h-.533c-.1 0-.152-.029-.162-.133a.84.84 0 0 0-.8-.78c-.5 0-.838.419-.838 1.18v3.331c0 .762.342 1.18.838 1.18a.84.84 0 0 0 .8-.78c.009-.1.057-.133.162-.133h.533c.114 0 .124.086.124.171a1.547 1.547 0 0 1-1.627 1.551c-1.066.001-1.694-.732-1.694-1.989z" transform="translate(-302.988 -218.44)"/>
            <path class="cls-2" d="M350.408 223.759v-3.331c0-1.256.628-1.989 1.694-1.989s1.694.732 1.694 1.989v3.331c0 1.256-.628 1.989-1.694 1.989s-1.694-.732-1.694-1.989zm2.522 0v-3.331c0-.761-.343-1.18-.828-1.18s-.828.419-.828 1.18v3.331c0 .771.342 1.18.828 1.18s.828-.409.828-1.18z" transform="translate(-309.097 -218.44)"/>
            <path class="cls-2" d="M364.255 218.834v.362c0 .143-.057.2-.2.2h-1.4c-.143 0-.181.038-.181.181v1.95c0 .143.038.181.181.181h.923c.143 0 .2.057.2.2v.361c0 .143-.057.2-.2.2h-.923c-.143 0-.181.038-.181.181v2.921c0 .143-.057.2-.2.2h-.467c-.143 0-.2-.057-.2-.2v-6.737c0-.143.057-.2.2-.2h2.246c.147 0 .202.057.202.2z" transform="translate(-315.35 -218.548)"/>
            <path  class="cls-2" d="M373.3 218.834v.362c0 .143-.057.2-.2.2h-1.4c-.143 0-.181.038-.181.181v1.95c0 .143.038.181.181.181h.923c.143 0 .2.057.2.2v.361c0 .143-.057.2-.2.2h-.923c-.143 0-.181.038-.181.181v2.921c0 .143-.057.2-.2.2h-.467c-.143 0-.2-.057-.2-.2v-6.737c0-.143.057-.2.2-.2h2.248c.145 0 .2.057.2.2z" transform="translate(-320.4 -218.548)"/>
            <path class="cls-2" d="M380.571 221.527c0 .143.038.181.181.181h1.389c.143 0 .2.057.2.2v.361c0 .143-.057.2-.2.2h-1.389c-.143 0-.181.038-.181.181v2.179c0 .143.038.181.181.181h1.389c.143 0 .2.057.2.2v.361c0 .143-.057.2-.2.2H379.9c-.143 0-.2-.057-.2-.2v-6.737c0-.143.057-.2.2-.2h2.236c.143 0 .2.057.2.2v.362c0 .143-.057.2-.2.2h-1.389c-.143 0-.181.038-.181.181z" transform="translate(-325.452 -218.548)"/>
            <path class="cls-2" d="M390.07 221.527c0 .143.038.181.181.181h1.389c.143 0 .2.057.2.2v.361c0 .143-.057.2-.2.2h-1.389c-.143 0-.181.038-.181.181v2.179c0 .143.038.181.181.181h1.389c.143 0 .2.057.2.2v.361c0 .143-.057.2-.2.2h-2.24c-.143 0-.2-.057-.2-.2v-6.737c0-.143.057-.2.2-.2h2.236c.143 0 .2.057.2.2v.362c0 .143-.057.2-.2.2h-1.389c-.143 0-.181.038-.181.181z" transform="translate(-330.754 -218.548)"/>
            <path class="cls-2" d="M404.735 225.571v-6.737c0-.143.057-.2.2-.2h1.38a1.6 1.6 0 0 1 1.675 1.779v.2a1.6 1.6 0 0 1-.714 1.418 1.619 1.619 0 0 1 .828 1.627v.286a1.622 1.622 0 0 1-1.722 1.827h-1.446c-.144 0-.201-.057-.201-.2zm1.494-3.9c.524 0 .914-.324.914-1.028v-.219c0-.7-.381-1.028-.914-1.028h-.447c-.143 0-.181.038-.181.2v1.894c0 .143.038.181.181.181zm.057 3.34c.562 0 .961-.333.961-1.113v-.352c0-.79-.4-1.113-.961-1.113h-.5c-.143 0-.181.038-.181.181v2.217c0 .143.038.181.181.181z" transform="translate(-339.424 -218.548)"/>
            <path class="cls-2" d="M416.382 218.824c.038-.162.1-.19.257-.19H417c.152 0 .219.029.257.19l1.465 6.756c.029.142-.038.19-.143.19h-.495c-.124 0-.181-.048-.209-.19l-.266-1.275c-.029-.114-.067-.133-.19-.133h-1.2c-.124 0-.162.019-.19.133l-.266 1.275c-.029.142-.086.19-.209.19h-.495c-.1 0-.171-.048-.143-.19zm-.1 4.586h1.066c.048 0 .086-.028.076-.1l-.552-2.817c-.019-.067-.1-.067-.114 0l-.552 2.817c-.006.073.033.101.081.101z" transform="translate(-345.104 -218.548)"/>
            <path class="cls-2" d="M429.945 225.771h-.562a.2.2 0 0 1-.219-.133l-1.028-2.665h-.536c-.142 0-.181.038-.181.181v2.417c0 .143-.057.2-.2.2h-.466c-.143 0-.2-.057-.2-.2v-6.737c0-.143.057-.2.2-.2h1.38a1.647 1.647 0 0 1 1.637 1.874v.6a1.781 1.781 0 0 1-.838 1.675l1.1 2.8c.056.112.008.188-.087.188zm-2.341-3.588h.476c.428 0 .838-.323.838-1.075v-.628c0-.762-.41-1.085-.838-1.085h-.48c-.142 0-.181.038-.181.181V222c.004.145.042.183.181.183z" transform="translate(-351.606 -218.548)"/>
        </g>
    </g>
</svg>
