<svg id="그룹_2076" data-name="그룹 2076" xmlns="http://www.w3.org/2000/svg" width="94.979" height="36" viewBox="0 0 94.979 36">
    <defs>
        <clipPath id="clip-path">
            <path id="사각형_3260" data-name="사각형 3260" style="fill:none" d="M0 0h94.955v31.994H0z"/>
        </clipPath>
        <style>
            .cls-4{fill:#2a31a0;fill-rule:evenodd}
        </style>
    </defs>
    <g id="Fox.M" transform="translate(.023 1.923)">
        <g id="그룹_1768" data-name="그룹 1768" style="clip-path:url(#clip-path)">
            <path id="패스_1048" data-name="패스 1048" class="cls-4" d="M11.5 6.875c-.164 1.994-.413 3.908-.513 5.968a44.014 44.014 0 0 0 6.22-.2 5.221 5.221 0 0 1 2.415.2 3.049 3.049 0 0 1 1.738 2.031 2.26 2.26 0 0 1-1.183 2.4 12.272 12.272 0 0 1-3.327.694c-1.66.27-3.8.592-5.386.935-.5 2.162-.342 5.712-.164 8.488.078 1.161.178 2.2-.47 2.922a3.92 3.92 0 0 1-1.468.774 3.555 3.555 0 0 1-2.18.321 4.043 4.043 0 0 1-2.38-2.352 4.794 4.794 0 0 1-.356-1.264c-.321-2.688.349-6.209.043-9.014-1.61-.015-1.909-3.112-.834-4.3a2.834 2.834 0 0 1 1.268-.694c.107-1.775.356-3.616.356-5.362-1.5-.6-3.726-.942-4.795-2.228a2.232 2.232 0 0 1-.47-.9c-.128-.847.442-1.169.869-1.541 4.6-1.125 9.283-2.264 13.943-3.287a10.464 10.464 0 0 1 4.956-.253 5.154 5.154 0 0 1 2.023 1.344c.627.73 1.5 2.345 1.069 3.448-.356.906-1.5.862-2.857.9-3.035.073-6.255.073-8.514.972" transform="translate(.003 -.003)"/>
            <path id="패스_1049" data-name="패스 1049" class="cls-4" d="M23.313 15.887a7.166 7.166 0 0 0 .712-1.79c.762-2.52 1.567-4.945 2.38-7.509.185-.606.449-1.2.634-1.826.178-.6.271-1.169.556-1.914.192-.526.42-1.549.712-1.746a4.519 4.519 0 0 1 2.529-.037 7.824 7.824 0 0 1 2.023.891A6.774 6.774 0 0 1 34.128 3.1a5.234 5.234 0 0 1 1.112 2.349c.121.972.036 2.067.078 3.126.121 3.024.107 6.245.157 9.386.043 2.842.071 6.26.121 9.416.014.942.228 2.4-.078 2.929a2.787 2.787 0 0 1-1.9.811c-1.225.131-2.693.161-3.213-.526a2.645 2.645 0 0 1-.356-1.059c-.142-1.183.085-2.491.043-3.82-.128-3.689-.007-8.057-.791-10.92-.37.409-.328 1.234-.634 1.7-.784 2.754-1.838 6.414-2.736 9.547-.128.438-.349.964-.513 1.541a3.537 3.537 0 0 1-.634 1.541 3.7 3.7 0 0 1-2.536.248c-.506-.19-.677-1.088-.869-1.665a14.828 14.828 0 0 0-.712-1.826c-.655-1.848-1.211-3.8-1.945-5.647-.541-1.381-.94-2.812-1.5-4.186-.171-.409-.3-.935-.712-1.176a18.346 18.346 0 0 0-.2 3 193.861 193.861 0 0 1-.157 6.18c-.107 2.425.107 4.609-.99 5.968-.677.84-3.377 2.2-4.716 1.132-.477-.373-.456-1.059-.556-1.987-.036-.373-.135-.767-.157-1.1a51.229 51.229 0 0 1 .15-6.162c.135-2.169.043-4.638-.036-7.107a71.576 71.576 0 0 1 .392-9.912 9.885 9.885 0 0 1 .477-2.8A3.969 3.969 0 0 1 12.42.9c1.1-.526 2.08-1.1 3.448-.687 1.4.928 2.03 2.7 2.85 4.383.584 1.2 1.047 2.557 1.5 3.777.235.628.556 1.242.8 1.87.734 1.914 1.418 3.813 2.294 5.647" transform="translate(59.281 .451)"/>
            <path id="패스_1050" data-name="패스 1050" class="cls-4" d="M25.889 6.272a6.32 6.32 0 0 0 .791-1.461 5.685 5.685 0 0 1 1.86-2.476 3.7 3.7 0 0 1 1.667-.57 5.875 5.875 0 0 1 1.824.65A1.5 1.5 0 0 1 32.9 4a5.685 5.685 0 0 1-.513.935c-.5.84-1.14 1.775-1.667 2.557-.57.862-1.026 1.665-1.624 2.6-.228.365-.513.694-.513.891s.2.4.356.65c.883 1.4 1.8 3 2.693 4.266 1.2.694 2.13-.453 2.693-1.3a12.993 12.993 0 0 0 1.111-1.782 27.294 27.294 0 0 1 1.781-4.025c.663-.19 1.211.314 1.667.811a4.638 4.638 0 0 1 1.261 2.44 3.986 3.986 0 0 1-.791 2.52 14.941 14.941 0 0 1-4.2 5.033 11.461 11.461 0 0 1-2.18 1.5 4.133 4.133 0 0 1-4.517-1.015c-.128-.168-.221-.387-.356-.57-.862-1.2-1.482-2.681-2.451-3.981-1.35 1.57-1.877 3.978-3.287 5.49a3.4 3.4 0 0 1-3.641-.614 2.177 2.177 0 0 1-.4-1.176c.036-.446.541-.9.791-1.3.784-1.256 1.632-2.732 2.3-3.9a8.417 8.417 0 0 1-2.258.08c-.748-.1-1.453-.555-2.137-.482a3.224 3.224 0 0 0-.321 1.337c-.228.621-.37 1.256-.634 1.826a9.66 9.66 0 0 1-1.624 2.564 6.227 6.227 0 0 1-3.085 1.863 6.647 6.647 0 0 1-3.527-.037 3.962 3.962 0 0 1-.6-.365 9.376 9.376 0 0 1-1.781-1.344 10.272 10.272 0 0 1-1.624-2.637 10.037 10.037 0 0 1-.556-1.585 9.52 9.52 0 0 1-.313-3.9A16.349 16.349 0 0 1 3.7 8.471a13.471 13.471 0 0 1 2.18-3.82 9.219 9.219 0 0 1 1.949-1.622 5.167 5.167 0 0 1 2.451-.774 6.651 6.651 0 0 1 3.925 1.665c.278.234.62.65.99 1.015a5.768 5.768 0 0 1 1.582 2.352 14.9 14.9 0 0 1 .6 2.2c1.012.825 3.47.723 4.2-.285a20.19 20.19 0 0 0-2.657-3.74c-.278-.3-.9-.811-.948-1.176a2.493 2.493 0 0 1 .2-.855 3.437 3.437 0 0 1 2.615-1.746c3.327-.467 3.719 2.958 5.108 4.587m-16.2 2.44a6.483 6.483 0 0 0-1.546 3.331 7.314 7.314 0 0 0-.121 1.381A4.69 4.69 0 0 0 8.9 15.98c.8.716 1.845-.329 2.216-.767a5.615 5.615 0 0 0 .869-2.359 3.313 3.313 0 0 0 .085-1.14c-.128-.336-.541-.373-.834-.65a3.851 3.851 0 0 1-.836-1.257c-.135-.387-.157-1.264-.634-1.14l-.078.044" transform="translate(17.541 10.344)"/>
            <path id="패스_1051" data-name="패스 1051" class="cls-4" d="M10.994 3.542c1.632-.117 2.529.183 3.206 1.176a3.157 3.157 0 0 1 .477 2.6c-.427 1.534-2.6 2.462-4.317 2.235A2.916 2.916 0 0 1 8.3 8.29 3.748 3.748 0 0 1 8.344 5a3.263 3.263 0 0 1 2.65-1.461" transform="translate(48.638 22.176)"/>
        </g>
    </g>
</svg>
